<svg width="100" height="100" viewBox="0 0 100 100" xmlns="http://www.w3.org/2000/svg">
  <defs>
    <linearGradient id="leafGradient" x1="0%" y1="0%" x2="100%" y2="100%">
      <stop offset="0%" style="stop-color:#22c55e;stop-opacity:1" />
      <stop offset="50%" style="stop-color:#16a34a;stop-opacity:1" />
      <stop offset="100%" style="stop-color:#15803d;stop-opacity:1" />
    </linearGradient>
  </defs>
  <path d="M50 10 C70 20, 85 40, 80 65 C75 85, 55 90, 50 90 C45 90, 25 85, 20 65 C15 40, 30 20, 50 10 Z" 
        fill="url(#leafGradient)" opacity="0.8"/>
  <path d="M50 15 L50 85" stroke="#15803d" stroke-width="2" opacity="0.6"/>
  <path d="M50 25 C60 30, 65 35, 60 45" stroke="#15803d" stroke-width="1" opacity="0.4" fill="none"/>
  <path d="M50 35 C40 40, 35 45, 40 55" stroke="#15803d" stroke-width="1" opacity="0.4" fill="none"/>
  <path d="M50 45 C60 50, 65 55, 60 65" stroke="#15803d" stroke-width="1" opacity="0.4" fill="none"/>
</svg>